<?xml version="1.0" encoding="UTF-8"?>
<svg id="Layer_2" data-name="Layer 2" xmlns="http://www.w3.org/2000/svg" viewBox="0 0 92.4 72.12">
  <defs>
    <style>
      .cls-1, .cls-2 {
        stroke: #fff;
        stroke-miterlimit: 10;
        stroke-width: 1.81px;
      }

      .cls-2 {
        fill: #3fa9f5;
      }
    </style>
  </defs>
  <g id="Layer_1-2" data-name="Layer 1">
    <g>
      <polygon class="cls-2" points="18.16 13.92 .9 13.92 .9 .9 11.47 .9 18.16 13.92"/>
      <polygon class="cls-2" points="91.49 .9 91.49 13.92 74.84 13.92 81.28 .9 91.49 .9"/>
      <path class="cls-1" d="M81.28.9l-6.45,13.02-27.82,56.19L18.16,13.92,11.47.9h19.32c-.08.71-.12,1.43-.12,2.17,0,4.09,1.22,7.85,3.27,10.85,2.83,4.16,7.27,6.84,12.25,6.84s9.42-2.68,12.25-6.84c2.05-3,3.27-6.76,3.27-10.85,0-.73-.04-1.46-.12-2.17h19.68Z"/>
    </g>
  </g>
</svg>